PathFileType	4	(X/Y/Z)	c:/Users/goper/Files/vsCode/490R/osim_files/A06/A06_Slow_04.trc
DataRate	CameraRate	NumFrames	NumMarkers	Units                	OrigDataRate	OrigDataStartFrame	OrigNumFrames
120.00	120.00	8	36	mm	120.0	696	1390
                Frame#	Time	LPSIS			LASIS			LTH1			LTH2			LTH3			LTH4			LLFE			LMFE			LSH1			LSH2			LSH3			LSH4			LLMAL			LMMAL			LCAL			LMTP5			LTOE			LMTP1			RPSIS			RASIS			RTH1			RTH2			RTH3			RTH4			RLFE			RMFE			RSH1			RSH2			RSH3			RSH4			RLMAL			RMMAL			RCAL			RMTP1			RTOE			RMTP5		
		X1	Y1	Z1	X2	Y2	Z2	X3	Y3	Z3	X4	Y4	Z4	X5	Y5	Z5	X6	Y6	Z6	X7	Y7	Z7	X8	Y8	Z8	X9	Y9	Z9	X10	Y10	Z10	X11	Y11	Z11	X12	Y12	Z12	X13	Y13	Z13	X14	Y14	Z14	X15	Y15	Z15	X16	Y16	Z16	X17	Y17	Z17	X18	Y18	Z18	X19	Y19	Z19	X20	Y20	Z20	X21	Y21	Z21	X22	Y22	Z22	X23	Y23	Z23	X24	Y24	Z24	X25	Y25	Z25	X26	Y26	Z26	X27	Y27	Z27	X28	Y28	Z28	X29	Y29	Z29	X30	Y30	Z30	X31	Y31	Z31	X32	Y32	Z32	X33	Y33	Z33	X34	Y34	Z34	X35	Y35	Z35	X36	Y36	Z36

696	5.79167	-237.97894	978.76593	396.51697	-434.07193	919.81067	445.85281	-277.07697	577.74426	479.13608	-273.96609	535.37512	472.84207	-338.04633	564.28479	463.29700	-323.16797	524.77899	459.22717	-273.24643	459.35376	454.38150	-268.95813	456.10452	343.70746	-189.91063	384.98239	469.35364	-183.19334	339.45758	474.12744	-249.83844	369.04318	460.28326	-236.62187	328.76889	464.21262	-117.74656	91.96944	430.33063	-133.63200	106.62839	343.70590	-47.62650	86.95458	379.52966	-228.40047	38.63583	441.29614	-267.01236	56.80245	383.45236	-241.46823	52.18576	346.07690	-229.28394	995.21729	265.80020	-397.92245	965.67346	195.10834	-462.80161	605.35370	167.05914	-478.64935	562.91736	163.36324	-406.97858	578.57574	159.92256	-430.25098	542.51337	159.87756	-500.00116	449.44177	184.60631	-504.05704	451.45193	274.65765	-540.74097	297.48288	200.09889	-560.64026	253.31482	201.38977	-598.01410	316.97708	208.04933	-609.81476	269.71292	204.81978	-610.95306	124.51493	191.82469	-625.37408	134.27098	276.41583	-570.37018	82.95467	243.58490	-763.91492	146.91257	263.48489	-771.17480	162.41333	221.99272	-751.10138	135.71866	175.65228
697	5.80000	-246.62645	976.94733	395.43127	-442.48788	918.50787	445.92953	-282.95435	577.13367	478.72116	-278.94562	535.45160	471.65207	-343.75427	563.69110	463.35376	-329.17444	523.43585	459.18188	-278.65982	458.59601	454.38846	-274.89948	455.14719	343.82599	-194.33342	385.11954	469.17374	-187.00468	339.70984	473.99811	-254.07237	368.52509	460.23297	-240.51265	328.43835	464.17911	-118.76765	92.88892	430.20517	-134.53067	107.27140	343.48788	-48.52781	88.61816	379.47290	-228.69196	38.51208	441.34210	-267.53311	56.20563	383.46512	-242.00241	51.90860	346.04773	-238.08914	993.13159	264.89258	-407.06107	963.71313	194.83687	-471.78979	602.82275	167.12050	-487.64041	560.94928	163.53963	-414.98898	577.48358	160.14722	-439.17685	540.54407	159.87630	-508.89148	447.38962	184.68750	-512.70880	449.41916	274.87476	-549.68567	294.71930	199.79132	-569.68182	251.56955	201.77870	-606.91943	315.13040	208.52063	-618.43848	267.56479	205.45305	-620.24127	122.62917	192.00192	-634.42542	132.29726	276.63284	-579.66101	80.96252	243.68030	-772.91223	145.29126	264.24176	-780.33295	160.75374	222.63301	-760.51801	134.06947	176.16896
698	5.80833	-254.87589	975.16443	394.53580	-450.67090	917.16144	446.05292	-289.11987	576.64191	478.38983	-284.86899	534.94385	471.53998	-349.70639	562.62720	463.65875	-335.11584	522.59399	459.57312	-283.96692	457.91815	454.55634	-281.03625	454.24146	344.15765	-198.93716	385.38803	469.15308	-191.02521	340.02002	473.86871	-258.39301	367.88724	460.31052	-244.13461	327.98004	464.29095	-119.68350	93.97438	430.10367	-135.61345	108.13892	343.38599	-49.50612	90.52712	379.51233	-228.97844	38.33414	441.45795	-268.10941	55.49780	383.52060	-242.59077	51.65316	346.10965	-246.97488	991.07239	263.75052	-416.41779	961.71417	194.51775	-481.13776	601.32831	167.23050	-496.54358	558.69226	163.68257	-423.13928	576.06488	160.17325	-447.92072	538.51996	159.85529	-517.37207	445.09222	184.81552	-521.05524	447.03625	275.02838	-558.16754	292.47946	199.86731	-577.75964	249.37325	201.80692	-614.83893	312.05582	208.40141	-627.21442	265.46936	205.41695	-629.09161	119.94302	192.27286	-642.57404	129.92253	276.78162	-588.05664	78.57456	243.56491	-781.21027	142.46204	264.53247	-788.75305	158.48074	223.38083	-769.06506	131.84207	176.79698
699	5.81667	-263.73334	973.39288	393.09439	-459.09235	915.88062	446.33261	-295.33710	576.36108	478.21368	-290.80933	534.58423	471.54764	-355.87756	561.78674	464.10147	-340.57935	522.08380	460.28949	-289.38916	457.46158	454.90427	-287.20554	453.42929	344.45673	-203.87396	385.73209	469.26849	-195.35825	340.48965	474.00601	-263.10843	367.59521	460.44760	-248.46303	327.78989	464.36542	-120.29190	94.89542	429.20923	-136.83627	109.23776	343.41727	-50.69066	92.48004	379.83530	-229.38676	38.22475	441.56299	-268.73953	54.85199	383.52579	-243.19600	51.75777	346.39450	-256.06204	988.98608	262.41498	-425.94345	959.68982	194.18172	-489.39505	598.64557	167.71802	-505.14322	556.32556	163.88101	-431.37698	574.39508	160.10509	-457.34259	536.35797	159.33556	-525.53693	442.58771	184.90811	-529.17004	443.95944	274.57095	-566.10913	289.88892	199.88281	-585.87714	246.61674	201.87787	-622.78485	309.39841	208.65068	-635.16211	262.78256	205.61874	-637.29968	117.15798	192.41879	-650.06079	127.12915	276.79218	-595.48358	75.90763	243.21710	-788.62964	139.53239	265.20560	-796.45184	155.54222	224.10718	-776.91583	129.04018	177.39442
700	5.82500	-272.18909	971.66449	391.86057	-467.73145	914.69458	446.43826	-301.75510	576.09125	478.09238	-296.95734	534.30090	471.62769	-362.41412	560.97681	464.60184	-346.70200	521.39746	460.86377	-295.25778	457.01831	455.31250	-293.08914	452.70752	344.56375	-209.02383	386.15726	469.48981	-199.90578	341.04922	474.23608	-268.03113	367.13867	460.65182	-252.75299	327.63345	464.57681	-121.59730	96.40105	429.34015	-138.16847	110.52749	343.61276	-51.74218	95.22997	379.98721	-229.78110	38.08327	441.69720	-269.34357	54.17272	383.56094	-243.78059	51.58313	346.49188	-265.41660	986.85608	260.97128	-435.81915	957.71094	193.81233	-499.06897	596.42261	167.66248	-514.07269	553.84674	164.03256	-442.52603	570.41846	159.54042	-465.49622	534.19452	159.64301	-533.39410	439.87332	184.97011	-536.75793	441.09641	274.67380	-573.55243	287.01352	199.81689	-593.08997	243.68690	201.89922	-630.11938	306.33075	208.84044	-642.44427	259.63889	205.85585	-644.08453	114.08090	192.43111	-656.61615	123.85311	276.80347	-602.08893	72.86155	242.89351	-795.35553	135.87163	265.91254	-803.92456	152.22617	224.48874	-783.96881	125.60065	178.07191
701	5.83333	-281.06653	969.93994	390.34006	-476.39722	913.52686	446.55096	-308.04285	576.24078	478.45160	-303.42252	533.99438	471.77121	-368.94681	560.26019	465.29376	-353.13156	520.74786	461.46112	-301.34677	456.57047	455.71625	-299.77209	451.99905	345.05350	-214.45061	386.62009	469.80518	-204.61911	341.60782	474.51437	-273.14175	366.86255	460.96115	-257.44916	327.51367	464.80692	-122.87658	97.93162	429.64032	-139.71461	111.93782	343.85785	-53.20626	97.61708	380.42477	-230.12476	37.96083	441.87042	-269.85916	53.51029	383.62680	-244.39153	51.52322	346.56848	-274.93805	984.70233	259.40314	-445.77701	955.75391	193.32520	-507.85904	593.83630	167.88062	-522.31018	551.00195	164.28241	-451.32864	568.07031	159.49805	-473.76312	531.78851	159.61192	-540.95392	436.91348	185.06790	-543.83264	437.92328	274.79550	-580.43268	283.81531	199.74858	-599.72272	240.42677	201.87776	-636.98175	302.93527	209.05812	-649.11835	256.18509	206.07060	-650.15228	110.63874	192.51131	-662.37152	120.18614	276.81058	-607.76843	69.62737	242.53636	-801.20319	131.55998	266.51059	-809.90448	148.04398	225.29005	-790.17145	121.49751	178.69482
702	5.84167	-290.18707	968.16302	388.77975	-485.34192	912.51306	446.58273	-315.16708	575.97858	478.40414	-309.69043	534.09430	472.42575	-376.08908	559.45105	465.88144	-359.87000	520.05634	462.19370	-307.75723	456.17303	456.16495	-306.84262	451.33945	345.59686	-219.97560	387.17511	470.10809	-209.65285	342.22879	474.77771	-278.54620	366.52756	461.32996	-262.23434	327.57483	465.19574	-124.27641	99.82342	429.82611	-141.26375	113.56088	344.17120	-54.43987	100.80503	380.59827	-230.47318	37.88064	442.02661	-270.28662	53.18885	383.87100	-244.86241	51.43859	346.52841	-284.74445	982.53857	257.77084	-456.00452	953.83691	192.78369	-516.45496	591.01813	168.01520	-530.82416	548.17297	164.42274	-459.65765	565.76996	159.38022	-481.91461	529.28796	159.57600	-548.16083	433.81839	185.12421	-550.82062	434.70828	274.87137	-586.60187	280.36301	199.80154	-605.69592	237.00293	201.90060	-643.18408	299.21375	209.22639	-655.26782	252.38264	206.02290	-654.95685	109.63408	192.64363	-667.76978	118.59642	276.96045	-611.74194	70.01849	242.37204	-806.88196	125.60204	267.04239	-816.19208	141.92516	225.88885	-795.63910	116.31732	179.11060
703	5.85000	-299.75378	966.46057	386.98080	-494.39969	911.60687	446.59943	-322.46869	575.66193	478.40637	-316.89261	533.79224	472.59943	-383.22739	558.75897	466.56259	-366.99051	519.44482	462.92853	-314.50162	455.67740	456.73541	-314.27612	450.64108	346.24133	-225.73811	387.82675	470.43951	-214.76682	343.01172	475.12167	-284.05270	366.29889	461.79059	-267.09116	327.55600	465.68430	-125.78962	101.75514	430.11383	-143.13287	115.27598	344.45047	-56.42620	103.72890	380.96133	-230.82800	37.73482	442.12375	-270.93039	52.29675	383.77097	-245.83231	51.14426	346.77621	-294.80191	980.40417	256.12683	-466.59012	951.95404	192.18837	-524.44531	588.09058	168.17624	-538.59747	545.38129	164.46756	-467.79901	563.57727	159.37070	-489.43402	526.70050	159.64815	-554.87183	430.71735	185.22894	-557.42786	431.68906	274.93903	-591.81482	276.99768	199.92577	-610.47461	233.32025	202.17441	-648.67938	295.34030	209.40082	-660.23474	248.40970	206.45190	-658.89673	107.43586	193.13724	-672.14490	116.17072	277.78564	-614.86340	70.14839	242.65814	-811.16077	119.07078	267.49915	-820.82361	135.30237	226.34949	-800.02643	110.39335	179.27409
